<svg xmlns="http://www.w3.org/2000/svg" width="50.955" height="73.478" viewBox="0 0 50.955 73.478">
    <path fill="#3bc1c4" d="M26.035 73.478c-.057-.078-5.755-7.935-11.574-16.471C9.052 49.074 2.362 38.821 1.205 35.03a31.906 31.906 0 0 1-.723-14.254 26.333 26.333 0 0 1 2.693-7.867 22.359 22.359 0 0 1 5.688-6.854 27.565 27.565 0 0 1 8.092-4.53 26.341 26.341 0 0 1 17.6-.021 27.376 27.376 0 0 1 8.1 4.552c10.827 8.744 8.496 23.176 6.992 28.974-.994 3.832-7.361 14.082-12.527 22.005-5.558 8.524-11.029 16.365-11.084 16.442zm-.66-58.93a10.946 10.946 0 1 0 11.107 10.945 11.04 11.04 0 0 0-11.107-10.945z"/>
</svg>
