<svg xmlns="http://www.w3.org/2000/svg" width="78.776" height="99.613" viewBox="0 0 78.776 99.613">
  <path id="빼기_1" data-name="빼기 1" d="M1456.45-997.387h0c-.039-.047-4-4.72-9.152-10.215-4.892-5.217-10.937-11.261-11.61-11.933a61.63,61.63,0,0,1-11.871-14.44,49.011,49.011,0,0,1-5.893-14.6,39.082,39.082,0,0,1,.269-18.01,41.657,41.657,0,0,1,6.877-14.823,36.99,36.99,0,0,1,10.2-9.336,41.474,41.474,0,0,1,11.444-4.861,42.774,42.774,0,0,1,10.606-1.4,31.091,31.091,0,0,1,4.372.29,35.18,35.18,0,0,1,9.869,2.953,39.2,39.2,0,0,1,7.291,4.436,35.341,35.341,0,0,1,6.068,5.8,31.582,31.582,0,0,0-3.75-1.746,35.752,35.752,0,0,0-9.015-2.309,31.484,31.484,0,0,0-3.458-.191,30.5,30.5,0,0,0-15.607,4.246c-5.042,3-11.935,10.832-14.744,18.753-.182.675-.347,1.338-.49,1.971a19.521,19.521,0,0,0-.8,5.531c0,.133,0,.267,0,.4a15.369,15.369,0,0,0,1.769,7.738,19.566,19.566,0,0,0,17.727,11.364,19.522,19.522,0,0,0,19.5-19.5,19.522,19.522,0,0,0-19.5-19.5,19.524,19.524,0,0,0-9.365,2.391,29.641,29.641,0,0,1,12.2-8.833,30.283,30.283,0,0,1,10.238-1.748c6.149,0,11.625,1.769,15.421,4.982a29.321,29.321,0,0,1,8.173,11.023,33.557,33.557,0,0,1,2.522,11.745,45.233,45.233,0,0,1-.824,10.365,46.066,46.066,0,0,1-1.863,6.88c-2.238,6.678-15.777,20.543-25.662,30.666l-.814.834c-5.737,5.878-10.088,11.016-10.131,11.067Z" transform="translate(-1417.003 1097)" fill="#3bc1c4"/>
</svg>
